<svg width="230" height="159" viewBox="0 0 230 159" fill="none" xmlns="http://www.w3.org/2000/svg">
<g clip-path="url(#clip0)">
<path d="M23.7047 57.2966H4.4834V60.2167H23.7047V57.2966Z" fill="#4D8AF0"/>
<path d="M4.48347 60.1478L2.30811 158.626H3.66739L6.67924 60.2167L4.48347 60.1478Z" fill="#EEEEEE"/>
<path d="M23.7021 60.1478L25.8749 158.626H24.5182L21.5063 60.2167L23.7021 60.1478Z" fill="#EEEEEE"/>
<path d="M8.57898 60.2167L6.24805 158.626H7.87766L10.0301 60.1478L8.57898 60.2167Z" fill="#E0E0E0"/>
<path d="M20.012 60.2167L22.3455 158.626H20.7133L18.5635 60.1478L20.012 60.2167Z" fill="#E0E0E0"/>
<path d="M20.512 146.673H8.15088V148.167H20.512V146.673Z" fill="#E0E0E0"/>
<path d="M21.055 138.387H7.74268V139.882H21.055V138.387Z" fill="#E0E0E0"/>
<path d="M21.0552 130.236H8.15088V131.731H21.0552V130.236Z" fill="#E0E0E0"/>
<path d="M20.512 121.951H8.15088V123.445H20.512V121.951Z" fill="#E0E0E0"/>
<path d="M20.512 113.395H8.15088V114.754H20.512V113.395Z" fill="#E0E0E0"/>
<path d="M20.5116 105.244H8.55859V106.874H20.5116V105.244Z" fill="#E0E0E0"/>
<path d="M20.1036 97.0934H8.55859V98.1798H20.1036V97.0934Z" fill="#E0E0E0"/>
<path d="M19.1526 88.4021H8.96436V90.1669H19.1526V88.4021Z" fill="#E0E0E0"/>
<path d="M19.5581 80.2515H8.96436V81.7459H19.5581V80.2515Z" fill="#E0E0E0"/>
<path d="M19.5581 71.8305H8.96436V73.4601H19.5581V71.8305Z" fill="#E0E0E0"/>
<path d="M19.1524 63.5447H9.50732V65.1744H19.1524V63.5447Z" fill="#E0E0E0"/>
<path d="M28.2517 51.7269H0V57.7047H28.2517V51.7269Z" fill="#4D8AF0"/>
<g opacity="0.5">
<path opacity="0.5" d="M26.7599 9.69098L16.9337 16.0921C16.8376 15.6962 16.6135 15.343 16.2962 15.0873C16.4113 14.7788 16.43 14.4427 16.3497 14.1233C16.335 14.0314 16.2992 13.9441 16.2452 13.8683C16.1944 13.8207 16.1329 13.7861 16.0658 13.7674C15.9987 13.7488 15.9281 13.7466 15.8601 13.7612L14.2993 13.8632C14.1176 13.8545 13.9381 13.9065 13.7893 14.0111C13.57 14.1947 13.5036 14.5798 13.2792 14.743C13.1288 14.8501 12.9375 14.8399 12.7692 14.9241C12.4096 15.1154 12.3305 15.6892 12.3025 16.1559C12.2642 16.7934 12.2668 17.5432 12.6825 17.9411C12.9859 18.2241 13.4067 18.1961 13.7893 18.1757L14.1744 18.1451C14.2717 18.2028 14.3741 18.2515 14.4804 18.2904V18.8337H14.409C14.409 18.8337 10.0047 17.5585 5.16686 30.8811H5.0827C5.0827 30.8811 4.36862 33.3038 5.51114 32.8779C6.50574 32.5056 6.53124 31.2636 6.51339 30.9525H6.5797C6.5797 30.9525 8.57655 25.1073 11.7134 24.3932C11.7134 24.3932 13.9958 27.2444 10.2878 32.9468H13.19C13.1808 33.5848 13.3095 34.2172 13.5674 34.8008C14.4217 36.512 11.8562 52.7648 11.8562 52.7648H13.9958L15.0721 47.3787L15.2072 52.7648H16.7756L18.344 42.4082L18.1298 29.9324V26.7012L18.4154 27.0812V22.0903H22.5494L23.2635 16.5308H23.1895C23.207 16.1425 23.1908 15.7534 23.1411 15.3678L28.4711 14.2483C29.3101 10.6856 26.7599 9.69098 26.7599 9.69098ZM22.0929 16.6175L20.8433 19.8129C20.8433 19.8129 17.4208 18.2445 16.1381 18.8158H16.0667V18.1374C16.329 17.9858 16.5502 17.7721 16.7107 17.5151C16.8712 17.2581 16.9662 16.9657 16.9873 16.6634L22.1261 15.5846C22.0595 15.924 22.0475 16.2718 22.0904 16.6149L22.0929 16.6175Z" fill="url(#paint0_linear)"/>
</g>
<path d="M22.8707 17.4361C22.8707 17.4361 23.0339 15.0797 22.2994 15.5974C21.5649 16.1151 21.8812 17.5815 21.8812 17.5815L22.8707 17.4361Z" fill="#FDA57D"/>
<path d="M5.63595 30.8759C5.63595 30.8759 4.95759 33.1839 6.044 32.7784C7.13041 32.3729 6.99524 30.8759 6.99524 30.8759H5.63595Z" fill="#FDA57D"/>
<path d="M16.0975 18.5149H14.603V19.8742H16.0975V18.5149Z" fill="#FDA57D"/>
<path d="M14.6005 25.9871H13.3789V32.1001H14.6005V25.9871Z" fill="#4D8AF0"/>
<path opacity="0.1" d="M14.6005 25.9871H13.3789V32.1001H14.6005V25.9871Z" fill="black"/>
<path d="M15.1842 19.3998H16.5971C16.986 19.3998 17.359 19.5543 17.634 19.8293C17.909 20.1043 18.0635 20.4773 18.0635 20.8662V29.9936H13.728V20.8662C13.728 20.4791 13.8811 20.1076 14.1539 19.8329C14.4267 19.5582 14.7971 19.4025 15.1842 19.3998Z" fill="white"/>
<path d="M15.2125 18.9892C16.1872 18.9892 16.9773 18.1991 16.9773 17.2244C16.9773 16.2498 16.1872 15.4597 15.2125 15.4597C14.2379 15.4597 13.4478 16.2498 13.4478 17.2244C13.4478 18.1991 14.2379 18.9892 15.2125 18.9892Z" fill="#FDA57D"/>
<path d="M14.5341 19.3998C14.5341 19.3998 10.3236 18.1782 5.70508 30.9448H7.06437C7.06437 30.9448 8.96686 25.3751 11.9532 24.6967C11.9532 24.6967 14.126 27.4127 10.5939 32.8575H13.4477V31.0366C13.431 28.2768 13.7739 25.5266 14.4678 22.8554C14.795 21.7296 14.8178 20.5373 14.5341 19.3998Z" fill="#4D8AF0"/>
<path d="M16.1636 19.3998V19.8078C16.1636 19.8078 17.1148 24.0183 17.9284 26.7343L18.344 27.2878V22.5239H22.2842L22.9626 17.227H21.8762L20.6393 20.3485C20.6393 20.3485 17.3851 18.8541 16.1636 19.3998Z" fill="#4D8AF0"/>
<path d="M13.718 29.9936C13.718 29.9936 12.9019 32.9825 13.718 34.6121C14.5341 36.2417 12.0884 51.7268 12.0884 51.7268H14.1286L17.0486 37.1241L17.523 29.9834L13.718 29.9936Z" fill="#333333"/>
<path d="M18.0659 29.9936L18.2699 41.8778L16.7754 51.7268H15.281L14.7378 29.9936H18.0659Z" fill="#333333"/>
<path d="M14.9241 16.5511C14.9603 16.4922 15.0049 16.4389 15.0567 16.393C15.1077 16.3631 15.1658 16.3473 15.225 16.3471C15.5948 16.3165 16.0207 16.3089 16.2451 15.9595C16.41 15.6458 16.4501 15.2814 16.3573 14.9394C16.3452 14.8476 16.3111 14.7601 16.2579 14.6844C16.2094 14.6389 16.1507 14.6059 16.0868 14.5882C16.0228 14.5704 15.9555 14.5684 15.8906 14.5823L14.4038 14.6793C14.2338 14.6728 14.0663 14.722 13.9269 14.8195C13.7178 14.9955 13.6566 15.3602 13.4373 15.5183C13.2919 15.6203 13.1108 15.6101 12.9578 15.6917C12.6161 15.8728 12.5421 16.4134 12.5141 16.8648C12.4784 17.4718 12.4784 18.1859 12.8762 18.5557C13.1644 18.826 13.5648 18.8107 13.9295 18.7801L14.6078 18.724C14.6763 18.7258 14.7435 18.7052 14.7991 18.6653C14.842 18.608 14.8724 18.5422 14.8882 18.4724C14.904 18.4025 14.9049 18.3301 14.8909 18.2598C14.8731 17.9181 14.8374 17.5305 14.6129 17.3213C14.5594 17.2811 14.5106 17.2349 14.4676 17.1836C14.2253 16.8062 14.7966 16.7195 14.9241 16.5511Z" fill="#333333"/>
<path d="M26.2828 10.7111C26.2828 10.7111 28.7285 11.6623 27.9124 15.0465L16.9106 17.3545V16.8113L26.2828 10.7111Z" fill="#F55F44"/>
<path opacity="0.1" d="M23.7022 57.6358H4.5498V58.179H23.7022V57.6358Z" fill="black"/>
<path opacity="0.1" d="M9.16828 95.9407H7.67383V96.2135H9.16828V95.9407Z" fill="black"/>
<path opacity="0.1" d="M20.8509 95.9407H19.3564V96.2135H20.8509V95.9407Z" fill="black"/>
<path d="M23.6358 93.699H4.4834V96.0069H23.6358V93.699Z" fill="#EEEEEE"/>
<path d="M38.5471 9.78023L38.7384 9.68332L38.6925 9.67822L38.7078 9.66802L38.6797 9.67567L33.416 8.99475L33.5282 10.7366L33.694 12.282L34.0179 12.1163L34.3188 12.7997L38.5471 9.78023Z" fill="url(#paint1_linear)"/>
<path d="M33.7041 10.7034L33.8571 12.1188L38.5623 9.73431L34.4768 9.82357L33.7041 10.7034Z" fill="#6C63FF"/>
<path opacity="0.2" d="M33.7041 10.7034L33.8571 12.1188L38.5623 9.73431L34.4768 9.82357L33.7041 10.7034Z" fill="black"/>
<path d="M33.5996 9.10953L38.5624 9.73434L33.7042 10.7034L33.5996 9.10953Z" fill="#6C63FF"/>
<path d="M34.4385 12.5881L38.5342 9.71902L33.7856 11.1319L34.4385 12.5881Z" fill="#6C63FF"/>
<path d="M64.0678 2.48906L64.259 2.39215L64.2131 2.3845L64.2284 2.3743L64.2004 2.3845L58.9341 1.70358L59.0488 3.44541L59.2146 4.99086L59.5385 4.8251L59.8394 5.50856L64.0678 2.48906Z" fill="url(#paint2_linear)"/>
<path d="M59.2246 3.41224L59.3776 4.82764L64.0828 2.44315L59.9973 2.5324L59.2246 3.41224Z" fill="#6C63FF"/>
<path opacity="0.2" d="M59.2246 3.41224L59.3776 4.82764L64.0828 2.44315L59.9973 2.5324L59.2246 3.41224Z" fill="black"/>
<path d="M59.1201 1.81833L64.0829 2.44314L59.2247 3.41224L59.1201 1.81833Z" fill="#6C63FF"/>
<path d="M59.959 5.29689L64.0547 2.42786L59.3062 3.83815L59.959 5.29689Z" fill="#6C63FF"/>
<path d="M108.781 0.214222L109.044 0.0178518L108.975 0.0204021L108.993 0L108.954 0.0204021L100.847 0.354486L101.469 2.95065L102.117 5.23313L102.563 4.89904L103.191 5.85029L108.781 0.214222Z" fill="url(#paint3_linear)"/>
<path d="M101.727 2.85375L102.321 4.94496L108.794 0.137726L102.663 1.3287L101.727 2.85375Z" fill="#6C63FF"/>
<path opacity="0.2" d="M101.727 2.85375L102.321 4.94496L108.794 0.137726L102.663 1.3287L101.727 2.85375Z" fill="black"/>
<path d="M101.158 0.47946L108.794 0.137726L101.727 2.85375L101.158 0.47946Z" fill="#6C63FF"/>
<path d="M103.319 5.50345L108.748 0.122406L101.959 3.47599L103.319 5.50345Z" fill="#6C63FF"/>
<path d="M87.2595 14.896L87.4686 14.8476L87.4252 14.8323L87.4431 14.8246H87.4125L82.4675 12.8966L82.1589 14.6155L81.9473 16.1533L82.3018 16.0717L82.4267 16.8062L87.2595 14.896Z" fill="url(#paint4_linear)"/>
<path d="M82.3374 14.6257L82.1436 16.0335L87.2849 14.8552L83.2988 13.9576L82.3374 14.6257Z" fill="#6C63FF"/>
<path opacity="0.2" d="M82.3374 14.6257L82.1436 16.0335L87.2849 14.8552L83.2988 13.9576L82.3374 14.6257Z" fill="black"/>
<path d="M82.621 13.0522L87.2854 14.8552L82.3379 14.6257L82.621 13.0522Z" fill="#6C63FF"/>
<path d="M82.5956 16.6302L87.2626 14.8323L82.3125 15.0593L82.5956 16.6302Z" fill="#6C63FF"/>
<g opacity="0.5">
<path opacity="0.5" d="M58.1791 33.059L58.3678 32.9595L58.3244 32.9544L58.3372 32.9442L58.3091 32.9519L53.0454 32.2709L53.1602 34.0153L53.3259 35.5582L53.6498 35.3925L53.9482 36.0759L58.1791 33.059Z" fill="url(#paint5_linear)"/>
<path opacity="0.5" d="M53.3359 33.9821L53.489 35.395L58.1942 33.0105L54.1087 33.0998L53.3359 33.9821Z" fill="#6C63FF"/>
<path opacity="0.2" d="M53.3359 33.9821L53.489 35.395L58.1942 33.0105L54.1087 33.0998L53.3359 33.9821Z" fill="black"/>
<path opacity="0.5" d="M53.2314 32.3857L58.1942 33.0105L53.336 33.9821L53.2314 32.3857Z" fill="#6C63FF"/>
<path opacity="0.5" d="M54.0708 35.8642L58.1665 32.9952L53.418 34.4081L54.0708 35.8642Z" fill="#6C63FF"/>
</g>
<g opacity="0.2">
<path opacity="0.2" d="M115.231 9.74962L115.493 9.5507L115.424 9.55325L115.445 9.5354L115.404 9.5558L107.299 9.88734L107.922 12.4835L108.567 14.7685L109.013 14.4344L109.643 15.3857L115.231 9.74962Z" fill="url(#paint6_linear)"/>
<path opacity="0.2" d="M108.177 12.3892L108.771 14.4778L115.244 9.67313L109.113 10.8641L108.177 12.3892Z" fill="#6C63FF"/>
<path opacity="0.2" d="M108.177 12.3892L108.771 14.4778L115.244 9.67313L109.113 10.8641L108.177 12.3892Z" fill="black"/>
<path opacity="0.2" d="M107.608 10.0149L115.243 9.67313L108.177 12.3891L107.608 10.0149Z" fill="#6C63FF"/>
<path opacity="0.2" d="M109.768 15.0388L115.197 9.65781L108.409 13.0114L109.768 15.0388Z" fill="#6C63FF"/>
</g>
<g opacity="0.3">
<path opacity="0.3" d="M136.826 38.0728L137.087 37.8764L137.018 37.879L137.038 37.8586L136.997 37.879L128.893 38.213L129.515 40.8092L130.163 43.0942L130.606 42.7576L131.236 43.7114L136.826 38.0728Z" fill="url(#paint7_linear)"/>
<path opacity="0.3" d="M129.77 40.7123L130.364 42.8035L136.839 37.9963L130.706 39.1872L129.77 40.7123Z" fill="#6C63FF"/>
<path opacity="0.2" d="M129.77 40.7123L130.364 42.8035L136.839 37.9963L130.706 39.1872L129.77 40.7123Z" fill="black"/>
<path opacity="0.3" d="M129.201 38.338L136.839 37.9963L129.77 40.7123L129.201 38.338Z" fill="#6C63FF"/>
<path opacity="0.3" d="M131.361 43.362L136.791 37.9835L130.002 41.3346L131.361 43.362Z" fill="#6C63FF"/>
</g>
<g opacity="0.3">
<path opacity="0.3" d="M203.569 52.0966L203.832 51.8977L203.763 51.9003L203.783 51.8824L203.742 51.9003L195.638 52.2344L196.26 54.8305L196.905 57.1155L197.351 56.7815L197.979 57.7327L203.569 52.0966Z" fill="url(#paint8_linear)"/>
<path opacity="0.3" d="M196.515 54.7362L197.109 56.8248L203.582 52.0176L197.451 53.2085L196.515 54.7362Z" fill="#6C63FF"/>
<path opacity="0.2" d="M196.515 54.7362L197.109 56.8248L203.582 52.0176L197.451 53.2085L196.515 54.7362Z" fill="black"/>
<path opacity="0.3" d="M195.946 52.3619L203.582 52.0176L196.515 54.7361L195.946 52.3619Z" fill="#6C63FF"/>
<path opacity="0.3" d="M198.106 57.3859L203.536 52.0048L196.747 55.3559L198.106 57.3859Z" fill="#6C63FF"/>
</g>
<g opacity="0.5">
<path opacity="0.5" d="M88.1012 37.6137L88.3104 37.5627L88.267 37.5474L88.2849 37.5398L88.2543 37.5423L83.3093 35.6118L83.0007 37.3307L82.7891 38.871L83.141 38.7869L83.2685 39.5213L88.1012 37.6137Z" fill="url(#paint9_linear)"/>
<path opacity="0.5" d="M83.1792 37.3409L82.9854 38.7486L88.1267 37.5704L84.1406 36.6727L83.1792 37.3409Z" fill="#6C63FF"/>
<path opacity="0.2" d="M83.1792 37.3409L82.9854 38.7486L88.1267 37.5704L84.1406 36.6727L83.1792 37.3409Z" fill="black"/>
<path opacity="0.5" d="M83.4623 35.7674L88.1267 37.5704L83.1792 37.3409L83.4623 35.7674Z" fill="#6C63FF"/>
<path opacity="0.5" d="M83.4369 39.3479L88.1039 37.55L83.1538 37.7744L83.4369 39.3479Z" fill="#6C63FF"/>
</g>
<g opacity="0.5">
<path opacity="0.5" d="M179.803 70.9838L180.013 70.9354L179.972 70.9175L179.987 70.9124H179.956L175.014 68.9844L174.703 70.7033L174.491 72.2411L174.846 72.157L174.973 72.894L179.803 70.9838Z" fill="url(#paint10_linear)"/>
<path opacity="0.5" d="M174.882 70.7135L174.69 72.1213L179.832 70.943L175.843 70.0453L174.882 70.7135Z" fill="#6C63FF"/>
<path opacity="0.2" d="M174.882 70.7135L174.69 72.1213L179.832 70.943L175.843 70.0453L174.882 70.7135Z" fill="black"/>
<path opacity="0.5" d="M175.164 69.14L179.831 70.943L174.881 70.7135L175.164 69.14Z" fill="#6C63FF"/>
<path opacity="0.5" d="M175.139 72.718L179.806 70.9201L174.858 71.1471L175.139 72.718Z" fill="#6C63FF"/>
</g>
<g opacity="0.5">
<path opacity="0.5" d="M174.195 35.65L174.405 35.599L174.361 35.5837L174.379 35.5761L174.349 35.5786L169.404 33.6481L169.095 35.3669L168.883 36.9073L169.238 36.8231L169.365 37.5576L174.195 35.65Z" fill="url(#paint11_linear)"/>
<path opacity="0.5" d="M169.273 35.3771L169.08 36.7849L174.223 35.6067L170.235 34.709L169.273 35.3771Z" fill="#6C63FF"/>
<path opacity="0.2" d="M169.273 35.3771L169.08 36.7849L174.223 35.6067L170.235 34.709L169.273 35.3771Z" fill="black"/>
<path opacity="0.5" d="M169.557 33.8062L174.223 35.6067L169.273 35.3771L169.557 33.8062Z" fill="#6C63FF"/>
<path opacity="0.5" d="M169.531 37.3842L174.198 35.5863L169.248 35.8107L169.531 37.3842Z" fill="#6C63FF"/>
</g>
<g opacity="0.2">
<path opacity="0.2" d="M220.748 6.20222L220.957 6.15377L220.916 6.13846L220.931 6.13081L220.901 6.13336L215.956 4.20282L215.647 5.92169L215.436 7.46205L215.79 7.37789L215.918 8.11236L220.748 6.20222Z" fill="url(#paint12_linear)"/>
<path opacity="0.2" d="M215.826 5.9319L215.632 7.33964L220.776 6.16142L216.787 5.26373L215.826 5.9319Z" fill="#6C63FF"/>
<path opacity="0.2" d="M215.826 5.9319L215.632 7.33964L220.776 6.16142L216.787 5.26373L215.826 5.9319Z" fill="black"/>
<path opacity="0.2" d="M216.109 4.3584L220.776 6.16143L215.826 5.93191L216.109 4.3584Z" fill="#6C63FF"/>
<path opacity="0.2" d="M216.083 7.93894L220.75 6.13846L215.803 6.36543L216.083 7.93894Z" fill="#6C63FF"/>
</g>
<g opacity="0.2">
<path opacity="0.2" d="M48.5594 15.7376L48.7685 15.6892L48.7251 15.6713L48.743 15.6662H48.7124L43.7674 13.7382L43.4588 15.4571L43.2446 16.9949L43.6017 16.9107L43.7266 17.6478L48.5594 15.7376Z" fill="url(#paint13_linear)"/>
<path opacity="0.2" d="M43.6377 15.4673L43.4438 16.875L48.5852 15.6968L44.5991 14.7991L43.6377 15.4673Z" fill="#6C63FF"/>
<path opacity="0.2" d="M43.6377 15.4673L43.4438 16.875L48.5852 15.6968L44.5991 14.7991L43.6377 15.4673Z" fill="black"/>
<path opacity="0.2" d="M43.9203 13.8938L48.5847 15.6968L43.6372 15.4673L43.9203 13.8938Z" fill="#6C63FF"/>
<path opacity="0.2" d="M43.8949 17.4718L48.5619 15.6739L43.6118 15.9008L43.8949 17.4718Z" fill="#6C63FF"/>
</g>
<path d="M148.379 9.48439L148.67 9.33393L148.601 9.32373L148.624 9.30842L148.58 9.32117L140.534 8.28067L140.71 10.9457L140.963 13.3072L141.457 13.0496L141.916 14.0953L148.379 9.48439Z" fill="url(#paint14_linear)"/>
<path d="M140.979 10.8947L141.211 13.0548L148.402 9.41046L142.159 9.54817L140.979 10.8947Z" fill="#6C63FF"/>
<path opacity="0.2" d="M140.979 10.8947L141.211 13.0548L148.402 9.41046L142.159 9.54817L140.979 10.8947Z" fill="black"/>
<path d="M140.817 8.45667L148.402 9.41046L140.978 10.8947L140.817 8.45667Z" fill="#6C63FF"/>
<path d="M142.1 13.7739L148.361 9.38748L141.103 11.545L142.1 13.7739Z" fill="#6C63FF"/>
<path d="M167.111 50.694L167.86 50.7399L167.735 50.643L167.799 50.6379L167.697 50.6124L153.11 39.1388L150.33 44.5759L148.058 49.5132L149.33 49.5897L149.009 52.1808L167.111 50.694Z" fill="url(#paint15_linear)"/>
<path d="M150.917 44.7902L148.843 49.3067L167.246 50.5792L154.816 43.5303L150.917 44.7902Z" fill="#6C63FF"/>
<path opacity="0.2" d="M150.917 44.7902L148.843 49.3067L167.246 50.5792L154.816 43.5303L150.917 44.7902Z" fill="black"/>
<path d="M153.459 39.8171L167.246 50.5792L150.917 44.7901L153.459 39.8171Z" fill="#6C63FF"/>
<path d="M149.744 51.7651L167.187 50.4849L150.397 46.2158L149.744 51.7651Z" fill="#6C63FF"/>
<path d="M228.432 94.1249L230 94.1759L229.735 93.9795L229.862 93.9642L229.651 93.9183L198.476 70.892L193.019 82.4192L188.589 92.865L191.246 92.9492L190.741 98.3736L228.432 94.1249Z" fill="url(#paint16_linear)"/>
<path d="M194.258 82.8297L190.213 92.3881L228.707 93.88L202.314 79.9505L194.258 82.8297Z" fill="#6C63FF"/>
<path opacity="0.2" d="M194.258 82.8297L190.213 92.3881L228.707 93.88L202.314 79.9505L194.258 82.8297Z" fill="black"/>
<path d="M199.249 72.287L228.707 93.88L194.258 82.8298L199.249 72.287Z" fill="#6C63FF"/>
<path d="M192.251 97.4606L228.577 93.6837L193.263 85.8391L192.251 97.4606Z" fill="#6C63FF"/>
<path d="M201.743 6.43173L202.427 6.1206L202.271 6.09255L202.325 6.0594L202.223 6.0849L183.963 2.76447L184.05 8.87233L184.348 14.2967L185.508 13.7714L186.437 16.212L201.743 6.43173Z" fill="url(#paint17_linear)"/>
<path d="M184.669 8.78564L184.947 13.7484L201.809 6.26599L187.525 5.84775L184.669 8.78564Z" fill="#6C63FF"/>
<path opacity="0.2" d="M184.669 8.78564L184.947 13.7484L201.809 6.26599L187.525 5.84775L184.669 8.78564Z" fill="black"/>
<path d="M184.59 3.20056L201.809 6.26597L184.669 8.78562L184.59 3.20056Z" fill="#6C63FF"/>
<path d="M186.893 15.5005L201.712 6.20987L184.875 10.2903L186.893 15.5005Z" fill="#6C63FF"/>
<path d="M221.092 26.9026L221.778 26.5941L221.622 26.566L221.673 26.5303L221.574 26.5558L203.314 23.2354L203.401 29.3432L203.699 34.7676L204.859 34.2448L205.788 36.6829L221.092 26.9026Z" fill="url(#paint18_linear)"/>
<path d="M204.021 29.2591L204.296 34.2219L221.158 26.7394L206.874 26.3212L204.021 29.2591Z" fill="#6C63FF"/>
<path opacity="0.2" d="M204.021 29.2591L204.296 34.2219L221.158 26.7394L206.874 26.3212L204.021 29.2591Z" fill="black"/>
<path d="M203.939 23.674L221.158 26.7394L204.021 29.2591L203.939 23.674Z" fill="#6C63FF"/>
<path d="M206.244 35.9714L221.061 26.6833L204.227 30.7612L206.244 35.9714Z" fill="#6C63FF"/>
<path d="M123.063 25.6887L123.356 25.5383L123.287 25.5306L123.308 25.5153L123.264 25.5281L115.221 24.4875L115.397 27.15L115.647 29.5116L116.141 29.2565L116.6 30.3021L123.063 25.6887Z" fill="url(#paint19_linear)"/>
<path d="M115.665 27.1016L115.897 29.2591L123.088 25.6173L116.845 25.755L115.665 27.1016Z" fill="#6C63FF"/>
<path opacity="0.2" d="M115.665 27.1016L115.897 29.2591L123.088 25.6173L116.845 25.755L115.665 27.1016Z" fill="black"/>
<path d="M115.503 24.6635L123.088 25.6173L115.664 27.1016L115.503 24.6635Z" fill="#6C63FF"/>
<path d="M116.784 29.9808L123.045 25.5944L115.787 27.7519L116.784 29.9808Z" fill="#6C63FF"/>
<path d="M171.579 22.0444L171.87 21.894L171.803 21.8838L171.824 21.8685L171.78 21.8812L163.737 20.8407L163.91 23.5057L164.163 25.8673L164.657 25.6122L165.117 26.6553L171.579 22.0444Z" fill="url(#paint20_linear)"/>
<path d="M164.18 23.4547L164.412 25.6148L171.604 21.9705L165.361 22.1082L164.18 23.4547Z" fill="#6C63FF"/>
<path opacity="0.2" d="M164.18 23.4547L164.412 25.6148L171.604 21.9705L165.361 22.1082L164.18 23.4547Z" fill="black"/>
<path d="M164.02 21.0192L171.604 21.9705L164.181 23.4547L164.02 21.0192Z" fill="#6C63FF"/>
<path d="M165.3 26.334L171.561 21.9475L164.303 24.1076L165.3 26.334Z" fill="#6C63FF"/>
</g>
<defs>
<linearGradient id="paint0_linear" x1="16.7527" y1="52.7444" x2="16.7527" y2="9.68588" gradientUnits="userSpaceOnUse">
<stop stop-color="#808080" stop-opacity="0.25"/>
<stop offset="0.54" stop-color="#808080" stop-opacity="0.12"/>
<stop offset="1" stop-color="#808080" stop-opacity="0.1"/>
</linearGradient>
<linearGradient id="paint1_linear" x1="2066.2" y1="1773.19" x2="2062.43" y2="1715.79" gradientUnits="userSpaceOnUse">
<stop stop-color="#808080" stop-opacity="0.25"/>
<stop offset="0.54" stop-color="#808080" stop-opacity="0.12"/>
<stop offset="1" stop-color="#808080" stop-opacity="0.1"/>
</linearGradient>
<linearGradient id="paint2_linear" x1="2627.16" y1="1645.31" x2="2623.4" y2="1587.9" gradientUnits="userSpaceOnUse">
<stop stop-color="#808080" stop-opacity="0.25"/>
<stop offset="0.54" stop-color="#808080" stop-opacity="0.12"/>
<stop offset="1" stop-color="#808080" stop-opacity="0.1"/>
</linearGradient>
<linearGradient id="paint3_linear" x1="5869.44" y1="1602.51" x2="5837.94" y2="1471.09" gradientUnits="userSpaceOnUse">
<stop stop-color="#808080" stop-opacity="0.25"/>
<stop offset="0.54" stop-color="#808080" stop-opacity="0.12"/>
<stop offset="1" stop-color="#808080" stop-opacity="0.1"/>
</linearGradient>
<linearGradient id="paint4_linear" x1="2686.48" y1="2589.65" x2="2696.95" y2="2531.48" gradientUnits="userSpaceOnUse">
<stop stop-color="#808080" stop-opacity="0.25"/>
<stop offset="0.54" stop-color="#808080" stop-opacity="0.12"/>
<stop offset="1" stop-color="#808080" stop-opacity="0.1"/>
</linearGradient>
<linearGradient id="paint5_linear" x1="2487.4" y1="2135.4" x2="2483.64" y2="2078.03" gradientUnits="userSpaceOnUse">
<stop stop-color="#808080" stop-opacity="0.25"/>
<stop offset="0.54" stop-color="#808080" stop-opacity="0.12"/>
<stop offset="1" stop-color="#808080" stop-opacity="0.1"/>
</linearGradient>
<linearGradient id="paint6_linear" x1="6060.51" y1="1820.76" x2="6028.99" y2="1689.28" gradientUnits="userSpaceOnUse">
<stop stop-color="#808080" stop-opacity="0.25"/>
<stop offset="0.54" stop-color="#808080" stop-opacity="0.12"/>
<stop offset="1" stop-color="#808080" stop-opacity="0.1"/>
</linearGradient>
<linearGradient id="paint7_linear" x1="6712.6" y1="2463.79" x2="6681.08" y2="2332.32" gradientUnits="userSpaceOnUse">
<stop stop-color="#808080" stop-opacity="0.25"/>
<stop offset="0.54" stop-color="#808080" stop-opacity="0.12"/>
<stop offset="1" stop-color="#808080" stop-opacity="0.1"/>
</linearGradient>
<linearGradient id="paint8_linear" x1="8862.37" y1="2649.69" x2="8830.86" y2="2518.27" gradientUnits="userSpaceOnUse">
<stop stop-color="#808080" stop-opacity="0.25"/>
<stop offset="0.54" stop-color="#808080" stop-opacity="0.12"/>
<stop offset="1" stop-color="#808080" stop-opacity="0.1"/>
</linearGradient>
<linearGradient id="paint9_linear" x1="2726.36" y1="2965.82" x2="2736.82" y2="2907.64" gradientUnits="userSpaceOnUse">
<stop stop-color="#808080" stop-opacity="0.25"/>
<stop offset="0.54" stop-color="#808080" stop-opacity="0.12"/>
<stop offset="1" stop-color="#808080" stop-opacity="0.1"/>
</linearGradient>
<linearGradient id="paint10_linear" x1="4814.68" y1="3634.15" x2="4825.15" y2="3575.97" gradientUnits="userSpaceOnUse">
<stop stop-color="#808080" stop-opacity="0.25"/>
<stop offset="0.54" stop-color="#808080" stop-opacity="0.12"/>
<stop offset="1" stop-color="#808080" stop-opacity="0.1"/>
</linearGradient>
<linearGradient id="paint11_linear" x1="4656.15" y1="3043.47" x2="4666.61" y2="2985.33" gradientUnits="userSpaceOnUse">
<stop stop-color="#808080" stop-opacity="0.25"/>
<stop offset="0.54" stop-color="#808080" stop-opacity="0.12"/>
<stop offset="1" stop-color="#808080" stop-opacity="0.1"/>
</linearGradient>
<linearGradient id="paint12_linear" x1="5673.37" y1="2616.78" x2="5683.84" y2="2558.61" gradientUnits="userSpaceOnUse">
<stop stop-color="#808080" stop-opacity="0.25"/>
<stop offset="0.54" stop-color="#808080" stop-opacity="0.12"/>
<stop offset="1" stop-color="#808080" stop-opacity="0.1"/>
</linearGradient>
<linearGradient id="paint13_linear" x1="1819.99" y1="2554.25" x2="1830.46" y2="2496.07" gradientUnits="userSpaceOnUse">
<stop stop-color="#808080" stop-opacity="0.25"/>
<stop offset="0.54" stop-color="#808080" stop-opacity="0.12"/>
<stop offset="1" stop-color="#808080" stop-opacity="0.1"/>
</linearGradient>
<linearGradient id="paint14_linear" x1="6743.05" y1="2723.2" x2="6734.26" y2="2589.17" gradientUnits="userSpaceOnUse">
<stop stop-color="#808080" stop-opacity="0.25"/>
<stop offset="0.54" stop-color="#808080" stop-opacity="0.12"/>
<stop offset="1" stop-color="#808080" stop-opacity="0.1"/>
</linearGradient>
<linearGradient id="paint15_linear" x1="10189.7" y1="15925.2" x2="10503.4" y2="15311.3" gradientUnits="userSpaceOnUse">
<stop stop-color="#808080" stop-opacity="0.25"/>
<stop offset="0.54" stop-color="#808080" stop-opacity="0.12"/>
<stop offset="1" stop-color="#808080" stop-opacity="0.1"/>
</linearGradient>
<linearGradient id="paint16_linear" x1="26715.3" y1="41188.7" x2="28019.7" y2="38458.7" gradientUnits="userSpaceOnUse">
<stop stop-color="#808080" stop-opacity="0.25"/>
<stop offset="0.54" stop-color="#808080" stop-opacity="0.12"/>
<stop offset="1" stop-color="#808080" stop-opacity="0.1"/>
</linearGradient>
<linearGradient id="paint17_linear" x1="18370" y1="7470.53" x2="18362.9" y2="6759.69" gradientUnits="userSpaceOnUse">
<stop stop-color="#808080" stop-opacity="0.25"/>
<stop offset="0.54" stop-color="#808080" stop-opacity="0.12"/>
<stop offset="1" stop-color="#808080" stop-opacity="0.1"/>
</linearGradient>
<linearGradient id="paint18_linear" x1="19780.1" y1="8570.96" x2="19773" y2="7860.13" gradientUnits="userSpaceOnUse">
<stop stop-color="#808080" stop-opacity="0.25"/>
<stop offset="0.54" stop-color="#808080" stop-opacity="0.12"/>
<stop offset="1" stop-color="#808080" stop-opacity="0.1"/>
</linearGradient>
<linearGradient id="paint19_linear" x1="5902.65" y1="3126.2" x2="5893.87" y2="2992.17" gradientUnits="userSpaceOnUse">
<stop stop-color="#808080" stop-opacity="0.25"/>
<stop offset="0.54" stop-color="#808080" stop-opacity="0.12"/>
<stop offset="1" stop-color="#808080" stop-opacity="0.1"/>
</linearGradient>
<linearGradient id="paint20_linear" x1="7496.52" y1="3007.47" x2="7487.74" y2="2873.44" gradientUnits="userSpaceOnUse">
<stop stop-color="#808080" stop-opacity="0.25"/>
<stop offset="0.54" stop-color="#808080" stop-opacity="0.12"/>
<stop offset="1" stop-color="#808080" stop-opacity="0.1"/>
</linearGradient>
<clipPath id="clip0">
<rect width="230" height="158.626" fill="white"/>
</clipPath>
</defs>
</svg>
