<svg width="200" height="176" viewBox="0 0 200 176" fill="none" xmlns="http://www.w3.org/2000/svg">
<circle cx="90" cy="84" r="84" fill="#E8F5FF"/>
<g clip-path="url(#clip0)">
<path d="M41.2532 81.8795H28.8848V83.759H41.2532V81.8795Z" fill="#4D8AF0"/>
<path d="M28.8849 83.7148L27.4851 147.101H28.3598L30.2978 83.7592L28.8849 83.7148Z" fill="#EEEEEE"/>
<path d="M41.2518 83.7148L42.65 147.101H41.7769L39.8389 83.7592L41.2518 83.7148Z" fill="#EEEEEE"/>
<path d="M31.5204 83.7592L30.0205 147.101H31.0691L32.4542 83.7148L31.5204 83.7592Z" fill="#E0E0E0"/>
<path d="M38.8772 83.7592L40.3787 147.101H39.3285L37.9451 83.7148L38.8772 83.7592Z" fill="#E0E0E0"/>
<path d="M39.199 139.408H31.2449V140.37H39.199V139.408Z" fill="#E0E0E0"/>
<path d="M39.5484 134.074H30.9822V135.036H39.5484V134.074Z" fill="#E0E0E0"/>
<path d="M39.5485 128.828H31.2449V129.79H39.5485V128.828Z" fill="#E0E0E0"/>
<path d="M39.199 123.495H31.2449V124.457H39.199V123.495Z" fill="#E0E0E0"/>
<path d="M39.199 117.988H31.2449V118.863H39.199V117.988Z" fill="#E0E0E0"/>
<path d="M39.1989 112.741H31.5073V113.79H39.1989V112.741Z" fill="#E0E0E0"/>
<path d="M38.9363 107.495H31.5073V108.195H38.9363V107.495Z" fill="#E0E0E0"/>
<path d="M38.3242 101.901H31.7683V103.037H38.3242V101.901Z" fill="#E0E0E0"/>
<path d="M38.5852 96.6547H31.7683V97.6166H38.5852V96.6547Z" fill="#E0E0E0"/>
<path d="M38.5852 91.2345H31.7683V92.2834H38.5852V91.2345Z" fill="#E0E0E0"/>
<path d="M38.3243 85.9012H32.1179V86.9502H38.3243V85.9012Z" fill="#E0E0E0"/>
<path d="M44.1794 78.2946H26V82.1422H44.1794V78.2946Z" fill="#4D8AF0"/>
<g opacity="0.5">
<path opacity="0.5" d="M43.2193 51.2377L36.8964 55.3578C36.8345 55.103 36.6903 54.8756 36.4861 54.7111C36.5602 54.5125 36.5722 54.2961 36.5206 54.0906C36.5111 54.0314 36.4881 53.9753 36.4533 53.9264C36.4206 53.8958 36.381 53.8735 36.3379 53.8615C36.2947 53.8495 36.2493 53.8481 36.2055 53.8575L35.2012 53.9232C35.0842 53.9175 34.9688 53.951 34.873 54.0184C34.7318 54.1366 34.6892 54.3844 34.5448 54.4895C34.4479 54.5584 34.3249 54.5519 34.2166 54.606C33.9852 54.7291 33.9343 55.0985 33.9162 55.3989C33.8916 55.8092 33.8933 56.2918 34.1608 56.5479C34.356 56.7301 34.6268 56.7121 34.873 56.6989L35.1208 56.6792C35.1834 56.7164 35.2493 56.7477 35.3177 56.7728V57.1224H35.2717C35.2717 57.1224 32.4377 56.3017 29.3246 64.8769H29.2705C29.2705 64.8769 28.811 66.4363 29.5462 66.1622C30.1862 65.9225 30.2026 65.1231 30.1911 64.9229H30.2338C30.2338 64.9229 31.5187 61.1605 33.5372 60.7009C33.5372 60.7009 35.0059 62.5361 32.6198 66.2065H34.4873C34.4814 66.6171 34.5643 67.0242 34.7302 67.3999C35.28 68.5013 33.6291 78.9626 33.6291 78.9626H35.0059L35.6984 75.4957L35.7854 78.9626H36.7946L37.8039 72.2965L37.666 64.2663V62.1865L37.8498 62.4311V59.2186H40.5099L40.9694 55.6402H40.9218C40.9331 55.3902 40.9226 55.1398 40.8906 54.8916L44.3204 54.171C44.8603 51.8779 43.2193 51.2377 43.2193 51.2377ZM40.2162 55.696L39.4121 57.7528C39.4121 57.7528 37.2098 56.7433 36.3844 57.111H36.3384V56.6743C36.5072 56.5767 36.6495 56.4392 36.7528 56.2738C36.8561 56.1083 36.9172 55.9201 36.9308 55.7255L40.2375 55.0312C40.1947 55.2496 40.187 55.4735 40.2145 55.6943L40.2162 55.696Z" fill="url(#paint0_linear)"/>
</g>
<path d="M40.7167 56.2229C40.7167 56.2229 40.8217 54.7062 40.3491 55.0394C39.8765 55.3726 40.0799 56.3165 40.0799 56.3165L40.7167 56.2229Z" fill="#FDA57D"/>
<path d="M29.6266 64.8737C29.6266 64.8737 29.19 66.3592 29.8891 66.0982C30.5882 65.8372 30.5012 64.8737 30.5012 64.8737H29.6266Z" fill="#FDA57D"/>
<path d="M36.3584 56.9172H35.3967V57.7922H36.3584V56.9172Z" fill="#FDA57D"/>
<path d="M35.3949 61.7269H34.6089V65.6616H35.3949V61.7269Z" fill="#4D8AF0"/>
<path opacity="0.1" d="M35.3949 61.7269H34.6089V65.6616H35.3949V61.7269Z" fill="black"/>
<path d="M35.7708 57.4868H36.6799C36.9302 57.4868 37.1702 57.5863 37.3471 57.7633C37.5241 57.9403 37.6235 58.1804 37.6235 58.4307V64.3056H34.8337V58.4307C34.8337 58.1815 34.9322 57.9424 35.1078 57.7656C35.2833 57.5888 35.5217 57.4885 35.7708 57.4868Z" fill="white"/>
<path d="M35.7887 57.2226C36.4158 57.2226 36.9243 56.7141 36.9243 56.0867C36.9243 55.4594 36.4158 54.9508 35.7887 54.9508C35.1615 54.9508 34.6531 55.4594 34.6531 56.0867C34.6531 56.7141 35.1615 57.2226 35.7887 57.2226Z" fill="#FDA57D"/>
<path d="M35.3522 57.487C35.3522 57.487 32.6428 56.7007 29.6709 64.918H30.5456C30.5456 64.918 31.7698 61.333 33.6914 60.8964C33.6914 60.8964 35.0896 62.6445 32.8168 66.1491H34.6531V64.9771C34.6424 63.2007 34.863 61.4305 35.3095 59.7112C35.52 58.9866 35.5348 58.2191 35.3522 57.487Z" fill="#4D8AF0"/>
<path d="M36.4009 57.4868V57.7495C36.4009 57.7495 37.013 60.4596 37.5365 62.2078L37.804 62.564V59.4977H40.3394L40.7759 56.0883H40.0768L39.2809 58.0975C39.2809 58.0975 37.1869 57.1355 36.4009 57.4868Z" fill="#4D8AF0"/>
<path d="M34.8272 64.3056C34.8272 64.3056 34.3021 66.2295 34.8272 67.2784C35.3523 68.3273 33.7786 78.2945 33.7786 78.2945H35.0914L36.9704 68.8953L37.2756 64.2991L34.8272 64.3056Z" fill="#333333"/>
<path d="M37.6252 64.3057L37.7565 71.9551L36.7948 78.2945H35.8332L35.4836 64.3057H37.6252Z" fill="#333333"/>
<path d="M35.6034 55.6533C35.6267 55.6153 35.6554 55.581 35.6887 55.5515C35.7215 55.5322 35.7589 55.522 35.797 55.5219C36.035 55.5023 36.309 55.4973 36.4534 55.2724C36.5595 55.0706 36.5853 54.836 36.5256 54.6158C36.5178 54.5568 36.4959 54.5004 36.4616 54.4517C36.4305 54.4225 36.3927 54.4012 36.3515 54.3898C36.3104 54.3783 36.2671 54.377 36.2253 54.386L35.2686 54.4484C35.1592 54.4442 35.0514 54.4759 34.9617 54.5387C34.8272 54.652 34.7878 54.8867 34.6466 54.9885C34.5531 55.0541 34.4366 55.0476 34.3381 55.1001C34.1182 55.2166 34.0706 55.5646 34.0526 55.8552C34.0296 56.2458 34.0296 56.7055 34.2856 56.9435C34.471 57.1175 34.7287 57.1076 34.9634 57.0879L35.3999 57.0518C35.4439 57.053 35.4871 57.0398 35.523 57.0141C35.5506 56.9772 35.5701 56.9348 35.5803 56.8899C35.5905 56.8449 35.5911 56.7983 35.582 56.7531C35.5705 56.5331 35.5476 56.2836 35.4032 56.149C35.3687 56.1231 35.3373 56.0934 35.3096 56.0604C35.1537 55.8174 35.5213 55.7616 35.6034 55.6533Z" fill="#333333"/>
<path d="M42.9124 51.8943C42.9124 51.8943 44.4861 52.5066 43.961 54.6848L36.8816 56.1704V55.8208L42.9124 51.8943Z" fill="#F55F44"/>
<path opacity="0.1" d="M41.2519 82.0979H28.9277V82.4475H41.2519V82.0979Z" fill="black"/>
<path opacity="0.1" d="M31.8996 106.753H30.938V106.929H31.8996V106.753Z" fill="black"/>
<path opacity="0.1" d="M39.4172 106.753H38.4556V106.929H39.4172V106.753Z" fill="black"/>
<path d="M41.2089 105.31H28.8848V106.796H41.2089V105.31Z" fill="#EEEEEE"/>
<path d="M50.8044 51.2951L50.9275 51.2328L50.898 51.2295L50.9078 51.2229L50.8898 51.2278L47.5027 50.7896L47.5749 51.9107L47.6816 52.9054L47.89 52.7987L48.0836 53.2387L50.8044 51.2951Z" fill="url(#paint1_linear)"/>
<path d="M47.6877 51.8894L47.7862 52.8004L50.8139 51.2656L48.185 51.3231L47.6877 51.8894Z" fill="#6C63FF"/>
<path opacity="0.2" d="M47.6877 51.8894L47.7862 52.8004L50.8139 51.2656L48.185 51.3231L47.6877 51.8894Z" fill="black"/>
<path d="M47.6206 50.8634L50.8141 51.2656L47.6879 51.8893L47.6206 50.8634Z" fill="#6C63FF"/>
<path d="M48.1606 53.1024L50.7961 51.2557L47.7405 52.1651L48.1606 53.1024Z" fill="#6C63FF"/>
<path d="M67.226 46.6021L67.3491 46.5398L67.3196 46.5348L67.3294 46.5283L67.3114 46.5348L63.9226 46.0966L63.9965 47.2177L64.1031 48.2124L64.3115 48.1058L64.5052 48.5457L67.226 46.6021Z" fill="url(#paint2_linear)"/>
<path d="M64.1099 47.1964L64.2083 48.1074L67.236 46.5726L64.6071 46.6301L64.1099 47.1964Z" fill="#6C63FF"/>
<path opacity="0.2" d="M64.1099 47.1964L64.2083 48.1074L67.236 46.5726L64.6071 46.6301L64.1099 47.1964Z" fill="black"/>
<path d="M64.0425 46.1704L67.2359 46.5726L64.1098 47.1963L64.0425 46.1704Z" fill="#6C63FF"/>
<path d="M64.5825 48.4094L67.218 46.5627L64.1624 47.4705L64.5825 48.4094Z" fill="#6C63FF"/>
<path d="M95.9983 45.1379L96.1674 45.0115L96.1231 45.0131L96.1345 45L96.1099 45.0131L90.8931 45.2282L91.2935 46.8992L91.7103 48.3684L91.9975 48.1533L92.4012 48.7656L95.9983 45.1379Z" fill="url(#paint3_linear)"/>
<path d="M91.4592 46.8368L91.8416 48.1828L96.0065 45.0886L92.0615 45.8552L91.4592 46.8368Z" fill="#6C63FF"/>
<path opacity="0.2" d="M91.4592 46.8368L91.8416 48.1828L96.0065 45.0886L92.0615 45.8552L91.4592 46.8368Z" fill="black"/>
<path d="M91.0933 45.3086L96.0065 45.0886L91.4592 46.8368L91.0933 45.3086Z" fill="#6C63FF"/>
<path d="M92.4833 48.5424L95.9771 45.0789L91.6086 47.2374L92.4833 48.5424Z" fill="#6C63FF"/>
<path d="M82.1497 54.588L82.2843 54.5568L82.2564 54.5469L82.2679 54.542H82.2482L79.0662 53.301L78.8677 54.4074L78.7314 55.3972L78.9596 55.3447L79.04 55.8174L82.1497 54.588Z" fill="url(#paint4_linear)"/>
<path d="M78.9824 54.414L78.8577 55.3201L82.166 54.5617L79.6011 53.9839L78.9824 54.414Z" fill="#6C63FF"/>
<path opacity="0.2" d="M78.9824 54.414L78.8577 55.3201L82.166 54.5617L79.6011 53.9839L78.9824 54.414Z" fill="black"/>
<path d="M79.1646 53.4012L82.166 54.5618L78.9824 54.4141L79.1646 53.4012Z" fill="#6C63FF"/>
<path d="M79.1482 55.7043L82.1513 54.547L78.9661 54.6931L79.1482 55.7043Z" fill="#6C63FF"/>
<g opacity="0.5">
<path opacity="0.5" d="M63.4369 66.2787L63.5584 66.2147L63.5305 66.2114L63.5387 66.2048L63.5206 66.2098L60.1335 65.7715L60.2074 66.8943L60.3141 67.8874L60.5225 67.7807L60.7145 68.2206L63.4369 66.2787Z" fill="url(#paint5_linear)"/>
<path opacity="0.5" d="M60.3206 66.873L60.419 67.7824L63.4467 66.2476L60.8178 66.305L60.3206 66.873Z" fill="#6C63FF"/>
<path opacity="0.2" d="M60.3206 66.873L60.419 67.7824L63.4467 66.2476L60.8178 66.305L60.3206 66.873Z" fill="black"/>
<path opacity="0.5" d="M60.2534 65.8453L63.4469 66.2475L60.3207 66.8729L60.2534 65.8453Z" fill="#6C63FF"/>
<path opacity="0.5" d="M60.7932 68.0844L63.4286 66.2377L60.373 67.1471L60.7932 68.0844Z" fill="#6C63FF"/>
</g>
<g opacity="0.2">
<path opacity="0.2" d="M100.148 51.2755L100.317 51.1474L100.273 51.1491L100.286 51.1376L100.26 51.1507L95.0447 51.3641L95.4451 53.0351L95.8603 54.5059L96.1475 54.2909L96.5528 54.9032L100.148 51.2755Z" fill="url(#paint6_linear)"/>
<path opacity="0.2" d="M95.6091 52.9744L95.9915 54.3188L100.156 51.2262L96.2114 51.9928L95.6091 52.9744Z" fill="#6C63FF"/>
<path opacity="0.2" d="M95.6091 52.9744L95.9915 54.3188L100.156 51.2262L96.2114 51.9928L95.6091 52.9744Z" fill="black"/>
<path opacity="0.2" d="M95.2434 51.4462L100.157 51.2262L95.6094 52.9744L95.2434 51.4462Z" fill="#6C63FF"/>
<path opacity="0.2" d="M96.6332 54.68L100.127 51.2164L95.7585 53.375L96.6332 54.68Z" fill="#6C63FF"/>
</g>
<g opacity="0.3">
<path opacity="0.3" d="M114.045 69.5059L114.212 69.3795L114.168 69.3812L114.181 69.368L114.155 69.3812L108.939 69.5962L109.34 71.2673L109.757 72.738L110.042 72.5214L110.448 73.1353L114.045 69.5059Z" fill="url(#paint7_linear)"/>
<path opacity="0.3" d="M109.504 71.2049L109.886 72.5509L114.053 69.4567L110.106 70.2232L109.504 71.2049Z" fill="#6C63FF"/>
<path opacity="0.2" d="M109.504 71.2049L109.886 72.5509L114.053 69.4567L110.106 70.2232L109.504 71.2049Z" fill="black"/>
<path opacity="0.3" d="M109.138 69.6766L114.053 69.4567L109.504 71.2049L109.138 69.6766Z" fill="#6C63FF"/>
<path opacity="0.3" d="M110.528 72.9104L114.022 69.4485L109.653 71.6054L110.528 72.9104Z" fill="#6C63FF"/>
</g>
<g opacity="0.3">
<path opacity="0.3" d="M156.992 78.5325L157.161 78.4045L157.117 78.4061L157.13 78.3947L157.104 78.4061L151.889 78.6212L152.289 80.2922L152.704 81.763L152.991 81.548L153.395 82.1603L156.992 78.5325Z" fill="url(#paint8_linear)"/>
<path opacity="0.3" d="M152.453 80.2315L152.836 81.5759L157.001 78.4817L153.056 79.2483L152.453 80.2315Z" fill="#6C63FF"/>
<path opacity="0.2" d="M152.453 80.2315L152.836 81.5759L157.001 78.4817L153.056 79.2483L152.453 80.2315Z" fill="black"/>
<path opacity="0.3" d="M152.087 78.7033L157.001 78.4817L152.453 80.2315L152.087 78.7033Z" fill="#6C63FF"/>
<path opacity="0.3" d="M153.477 81.9371L156.971 78.4735L152.603 80.6304L153.477 81.9371Z" fill="#6C63FF"/>
</g>
<g opacity="0.5">
<path opacity="0.5" d="M82.6912 69.2105L82.8258 69.1776L82.7979 69.1678L82.8094 69.1628L82.7897 69.1645L79.6077 67.9219L79.4092 69.0282L79.2729 70.0197L79.4994 69.9655L79.5815 70.4383L82.6912 69.2105Z" fill="url(#paint9_linear)"/>
<path opacity="0.5" d="M79.5241 69.0348L79.3994 69.9409L82.7077 69.1825L80.1428 68.6047L79.5241 69.0348Z" fill="#6C63FF"/>
<path opacity="0.2" d="M79.5241 69.0348L79.3994 69.9409L82.7077 69.1825L80.1428 68.6047L79.5241 69.0348Z" fill="black"/>
<path opacity="0.5" d="M79.7063 68.022L82.7078 69.1825L79.5242 69.0348L79.7063 68.022Z" fill="#6C63FF"/>
<path opacity="0.5" d="M79.6897 70.3267L82.6928 69.1694L79.5076 69.3139L79.6897 70.3267Z" fill="#6C63FF"/>
</g>
<g opacity="0.5">
<path opacity="0.5" d="M141.7 90.6895L141.834 90.6583L141.808 90.6468L141.818 90.6436H141.798L138.618 89.4026L138.417 90.509L138.281 91.4988L138.509 91.4446L138.591 91.919L141.7 90.6895Z" fill="url(#paint10_linear)"/>
<path opacity="0.5" d="M138.533 90.5155L138.409 91.4216L141.718 90.6633L139.151 90.0854L138.533 90.5155Z" fill="#6C63FF"/>
<path opacity="0.2" d="M138.533 90.5155L138.409 91.4216L141.718 90.6633L139.151 90.0854L138.533 90.5155Z" fill="black"/>
<path opacity="0.5" d="M138.715 89.5027L141.718 90.6632L138.532 90.5155L138.715 89.5027Z" fill="#6C63FF"/>
<path opacity="0.5" d="M138.698 91.8058L141.701 90.6486L138.518 90.7947L138.698 91.8058Z" fill="#6C63FF"/>
</g>
<g opacity="0.5">
<path opacity="0.5" d="M138.091 67.9465L138.225 67.9137L138.198 67.9039L138.209 67.8989L138.189 67.9006L135.007 66.658L134.809 67.7643L134.673 68.7558L134.901 68.7016L134.983 69.1744L138.091 67.9465Z" fill="url(#paint11_linear)"/>
<path opacity="0.5" d="M134.924 67.7709L134.799 68.677L138.109 67.9186L135.542 67.3408L134.924 67.7709Z" fill="#6C63FF"/>
<path opacity="0.2" d="M134.924 67.7709L134.799 68.677L138.109 67.9186L135.542 67.3408L134.924 67.7709Z" fill="black"/>
<path opacity="0.5" d="M135.106 66.7598L138.109 67.9187L134.924 67.7709L135.106 66.7598Z" fill="#6C63FF"/>
<path opacity="0.5" d="M135.089 69.0628L138.092 67.9055L134.907 68.05L135.089 69.0628Z" fill="#6C63FF"/>
</g>
<g opacity="0.2">
<path opacity="0.2" d="M168.046 48.9921L168.181 48.9609L168.155 48.9511L168.165 48.9462L168.145 48.9478L164.963 47.7052L164.764 48.8116L164.628 49.803L164.856 49.7489L164.938 50.2216L168.046 48.9921Z" fill="url(#paint12_linear)"/>
<path opacity="0.2" d="M164.879 48.8181L164.755 49.7242L168.065 48.9659L165.498 48.3881L164.879 48.8181Z" fill="#6C63FF"/>
<path opacity="0.2" d="M164.879 48.8181L164.755 49.7242L168.065 48.9659L165.498 48.3881L164.879 48.8181Z" fill="black"/>
<path opacity="0.2" d="M165.062 47.8053L168.065 48.9658L164.879 48.8181L165.062 47.8053Z" fill="#6C63FF"/>
<path opacity="0.2" d="M165.045 50.1101L168.048 48.9512L164.865 49.0973L165.045 50.1101Z" fill="#6C63FF"/>
</g>
<g opacity="0.2">
<path opacity="0.2" d="M57.2471 55.1297L57.3816 55.0985L57.3537 55.087L57.3652 55.0837H57.3455L54.1636 53.8428L53.965 54.9491L53.8271 55.939L54.0569 55.8848L54.1373 56.3592L57.2471 55.1297Z" fill="url(#paint13_linear)"/>
<path opacity="0.2" d="M54.08 54.9557L53.9553 55.8618L57.2636 55.1034L54.6987 54.5256L54.08 54.9557Z" fill="#6C63FF"/>
<path opacity="0.2" d="M54.08 54.9557L53.9553 55.8618L57.2636 55.1034L54.6987 54.5256L54.08 54.9557Z" fill="black"/>
<path opacity="0.2" d="M54.262 53.9429L57.2634 55.1034L54.0798 54.9557L54.262 53.9429Z" fill="#6C63FF"/>
<path opacity="0.2" d="M54.2456 56.246L57.2487 55.0887L54.0635 55.2348L54.2456 56.246Z" fill="#6C63FF"/>
</g>
<path d="M121.479 51.1047L121.666 51.0079L121.622 51.0013L121.636 50.9915L121.608 50.9997L116.431 50.33L116.544 52.0453L116.707 53.5654L117.025 53.3996L117.32 54.0726L121.479 51.1047Z" fill="url(#paint14_linear)"/>
<path d="M116.717 52.0125L116.866 53.4028L121.494 51.0571L117.476 51.1458L116.717 52.0125Z" fill="#6C63FF"/>
<path opacity="0.2" d="M116.717 52.0125L116.866 53.4028L121.494 51.0571L117.476 51.1458L116.717 52.0125Z" fill="black"/>
<path d="M116.613 50.4432L121.493 51.0572L116.716 52.0125L116.613 50.4432Z" fill="#6C63FF"/>
<path d="M117.439 53.8657L121.467 51.0424L116.797 52.4311L117.439 53.8657Z" fill="#6C63FF"/>
<path d="M133.532 77.6298L134.015 77.6593L133.934 77.5969L133.975 77.5937L133.91 77.5772L124.523 70.1921L122.734 73.6918L121.272 76.8698L122.091 76.919L121.884 78.5868L133.532 77.6298Z" fill="url(#paint15_linear)"/>
<path d="M123.112 73.8297L121.777 76.7368L133.619 77.5559L125.621 73.0188L123.112 73.8297Z" fill="#6C63FF"/>
<path opacity="0.2" d="M123.112 73.8297L121.777 76.7368L133.619 77.5559L125.621 73.0188L123.112 73.8297Z" fill="black"/>
<path d="M124.748 70.6288L133.619 77.5559L123.112 73.8297L124.748 70.6288Z" fill="#6C63FF"/>
<path d="M122.357 78.3191L133.581 77.4951L122.777 74.7472L122.357 78.3191Z" fill="#6C63FF"/>
<path d="M172.991 105.584L174 105.617L173.829 105.491L173.911 105.481L173.775 105.451L153.715 90.6304L150.203 98.05L147.353 104.774L149.063 104.828L148.738 108.319L172.991 105.584Z" fill="url(#paint16_linear)"/>
<path d="M151.001 98.3143L148.398 104.467L173.168 105.427L156.185 96.4611L151.001 98.3143Z" fill="#6C63FF"/>
<path opacity="0.2" d="M151.001 98.3143L148.398 104.467L173.168 105.427L156.185 96.4611L151.001 98.3143Z" fill="black"/>
<path d="M154.212 91.5283L173.168 105.427L151.001 98.3143L154.212 91.5283Z" fill="#6C63FF"/>
<path d="M149.709 107.732L173.084 105.3L150.361 100.251L149.709 107.732Z" fill="#6C63FF"/>
<path d="M155.817 49.1399L156.257 48.9396L156.157 48.9216L156.191 48.9002L156.126 48.9167L144.376 46.7794L144.432 50.7108L144.624 54.2023L145.37 53.8641L145.968 55.435L155.817 49.1399Z" fill="url(#paint17_linear)"/>
<path d="M144.831 50.655L145.009 53.8494L155.86 49.0332L146.669 48.764L144.831 50.655Z" fill="#6C63FF"/>
<path opacity="0.2" d="M144.831 50.655L145.009 53.8494L155.86 49.0332L146.669 48.764L144.831 50.655Z" fill="black"/>
<path d="M144.78 47.0601L155.86 49.0331L144.831 50.6549L144.78 47.0601Z" fill="#6C63FF"/>
<path d="M146.261 54.9771L155.797 48.9971L144.963 51.6235L146.261 54.9771Z" fill="#6C63FF"/>
<path d="M168.268 62.3162L168.709 62.1175L168.609 62.0995L168.642 62.0765L168.578 62.0929L156.828 59.9557L156.884 63.8871L157.076 67.3785L157.823 67.042L158.42 68.6113L168.268 62.3162Z" fill="url(#paint18_linear)"/>
<path d="M157.283 63.8329L157.46 67.0273L168.31 62.2111L159.119 61.9419L157.283 63.8329Z" fill="#6C63FF"/>
<path opacity="0.2" d="M157.283 63.8329L157.46 67.0273L168.31 62.2111L159.119 61.9419L157.283 63.8329Z" fill="black"/>
<path d="M157.23 60.238L168.311 62.2111L157.283 63.8329L157.23 60.238Z" fill="#6C63FF"/>
<path d="M158.714 68.1534L168.248 62.175L157.416 64.7998L158.714 68.1534Z" fill="#6C63FF"/>
<path d="M105.188 61.5349L105.377 61.438L105.333 61.4331L105.346 61.4232L105.318 61.4314L100.142 60.7617L100.255 62.4754L100.416 63.9955L100.735 63.8313L101.03 64.5043L105.188 61.5349Z" fill="url(#paint19_linear)"/>
<path d="M100.427 62.4441L100.577 63.8328L105.205 61.4888L101.187 61.5774L100.427 62.4441Z" fill="#6C63FF"/>
<path opacity="0.2" d="M100.427 62.4441L100.577 63.8328L105.205 61.4888L101.187 61.5774L100.427 62.4441Z" fill="black"/>
<path d="M100.324 60.8749L105.204 61.4888L100.427 62.4441L100.324 60.8749Z" fill="#6C63FF"/>
<path d="M101.148 64.2975L105.177 61.4741L100.506 62.8628L101.148 64.2975Z" fill="#6C63FF"/>
<path d="M136.407 59.1891L136.594 59.0922L136.552 59.0857L136.565 59.0758L136.537 59.084L131.361 58.4143L131.473 60.1297L131.635 61.6497L131.954 61.4856L132.249 62.1569L136.407 59.1891Z" fill="url(#paint20_linear)"/>
<path d="M131.646 60.0968L131.796 61.4872L136.424 59.1415L132.406 59.2301L131.646 60.0968Z" fill="#6C63FF"/>
<path opacity="0.2" d="M131.646 60.0968L131.796 61.4872L136.424 59.1415L132.406 59.2301L131.646 60.0968Z" fill="black"/>
<path d="M131.543 58.5292L136.424 59.1415L131.647 60.0968L131.543 58.5292Z" fill="#6C63FF"/>
<path d="M132.367 61.9501L136.396 59.1267L131.725 60.5171L132.367 61.9501Z" fill="#6C63FF"/>
</g>
<defs>
<linearGradient id="paint0_linear" x1="36.7799" y1="78.9495" x2="36.7799" y2="51.2344" gradientUnits="userSpaceOnUse">
<stop stop-color="#808080" stop-opacity="0.25"/>
<stop offset="0.54" stop-color="#808080" stop-opacity="0.12"/>
<stop offset="1" stop-color="#808080" stop-opacity="0.1"/>
</linearGradient>
<linearGradient id="paint1_linear" x1="1355.55" y1="1186.34" x2="1353.13" y2="1149.38" gradientUnits="userSpaceOnUse">
<stop stop-color="#808080" stop-opacity="0.25"/>
<stop offset="0.54" stop-color="#808080" stop-opacity="0.12"/>
<stop offset="1" stop-color="#808080" stop-opacity="0.1"/>
</linearGradient>
<linearGradient id="paint2_linear" x1="1716.52" y1="1104.02" x2="1714.1" y2="1067.07" gradientUnits="userSpaceOnUse">
<stop stop-color="#808080" stop-opacity="0.25"/>
<stop offset="0.54" stop-color="#808080" stop-opacity="0.12"/>
<stop offset="1" stop-color="#808080" stop-opacity="0.1"/>
</linearGradient>
<linearGradient id="paint3_linear" x1="3802.86" y1="1076.47" x2="3782.58" y2="991.888" gradientUnits="userSpaceOnUse">
<stop stop-color="#808080" stop-opacity="0.25"/>
<stop offset="0.54" stop-color="#808080" stop-opacity="0.12"/>
<stop offset="1" stop-color="#808080" stop-opacity="0.1"/>
</linearGradient>
<linearGradient id="paint4_linear" x1="1754.7" y1="1711.86" x2="1761.44" y2="1674.41" gradientUnits="userSpaceOnUse">
<stop stop-color="#808080" stop-opacity="0.25"/>
<stop offset="0.54" stop-color="#808080" stop-opacity="0.12"/>
<stop offset="1" stop-color="#808080" stop-opacity="0.1"/>
</linearGradient>
<linearGradient id="paint5_linear" x1="1626.59" y1="1419.47" x2="1624.17" y2="1382.54" gradientUnits="userSpaceOnUse">
<stop stop-color="#808080" stop-opacity="0.25"/>
<stop offset="0.54" stop-color="#808080" stop-opacity="0.12"/>
<stop offset="1" stop-color="#808080" stop-opacity="0.1"/>
</linearGradient>
<linearGradient id="paint6_linear" x1="3925.81" y1="1216.95" x2="3905.51" y2="1132.33" gradientUnits="userSpaceOnUse">
<stop stop-color="#808080" stop-opacity="0.25"/>
<stop offset="0.54" stop-color="#808080" stop-opacity="0.12"/>
<stop offset="1" stop-color="#808080" stop-opacity="0.1"/>
</linearGradient>
<linearGradient id="paint7_linear" x1="4345.42" y1="1630.85" x2="4325.12" y2="1546.22" gradientUnits="userSpaceOnUse">
<stop stop-color="#808080" stop-opacity="0.25"/>
<stop offset="0.54" stop-color="#808080" stop-opacity="0.12"/>
<stop offset="1" stop-color="#808080" stop-opacity="0.1"/>
</linearGradient>
<linearGradient id="paint8_linear" x1="5728.75" y1="1750.5" x2="5708.47" y2="1665.91" gradientUnits="userSpaceOnUse">
<stop stop-color="#808080" stop-opacity="0.25"/>
<stop offset="0.54" stop-color="#808080" stop-opacity="0.12"/>
<stop offset="1" stop-color="#808080" stop-opacity="0.1"/>
</linearGradient>
<linearGradient id="paint9_linear" x1="1780.35" y1="1953.98" x2="1787.09" y2="1916.54" gradientUnits="userSpaceOnUse">
<stop stop-color="#808080" stop-opacity="0.25"/>
<stop offset="0.54" stop-color="#808080" stop-opacity="0.12"/>
<stop offset="1" stop-color="#808080" stop-opacity="0.1"/>
</linearGradient>
<linearGradient id="paint10_linear" x1="3124.14" y1="2384.16" x2="3130.88" y2="2346.71" gradientUnits="userSpaceOnUse">
<stop stop-color="#808080" stop-opacity="0.25"/>
<stop offset="0.54" stop-color="#808080" stop-opacity="0.12"/>
<stop offset="1" stop-color="#808080" stop-opacity="0.1"/>
</linearGradient>
<linearGradient id="paint11_linear" x1="3022.13" y1="2003.96" x2="3028.86" y2="1966.54" gradientUnits="userSpaceOnUse">
<stop stop-color="#808080" stop-opacity="0.25"/>
<stop offset="0.54" stop-color="#808080" stop-opacity="0.12"/>
<stop offset="1" stop-color="#808080" stop-opacity="0.1"/>
</linearGradient>
<linearGradient id="paint12_linear" x1="3676.71" y1="1729.32" x2="3683.45" y2="1691.87" gradientUnits="userSpaceOnUse">
<stop stop-color="#808080" stop-opacity="0.25"/>
<stop offset="0.54" stop-color="#808080" stop-opacity="0.12"/>
<stop offset="1" stop-color="#808080" stop-opacity="0.1"/>
</linearGradient>
<linearGradient id="paint13_linear" x1="1197.12" y1="1689.07" x2="1203.86" y2="1651.62" gradientUnits="userSpaceOnUse">
<stop stop-color="#808080" stop-opacity="0.25"/>
<stop offset="0.54" stop-color="#808080" stop-opacity="0.12"/>
<stop offset="1" stop-color="#808080" stop-opacity="0.1"/>
</linearGradient>
<linearGradient id="paint14_linear" x1="4365.01" y1="1797.82" x2="4359.36" y2="1711.55" gradientUnits="userSpaceOnUse">
<stop stop-color="#808080" stop-opacity="0.25"/>
<stop offset="0.54" stop-color="#808080" stop-opacity="0.12"/>
<stop offset="1" stop-color="#808080" stop-opacity="0.1"/>
</linearGradient>
<linearGradient id="paint15_linear" x1="6582.82" y1="10295.4" x2="6784.79" y2="9900.31" gradientUnits="userSpaceOnUse">
<stop stop-color="#808080" stop-opacity="0.25"/>
<stop offset="0.54" stop-color="#808080" stop-opacity="0.12"/>
<stop offset="1" stop-color="#808080" stop-opacity="0.1"/>
</linearGradient>
<linearGradient id="paint16_linear" x1="17216.7" y1="26556.6" x2="18056.5" y2="24799.5" gradientUnits="userSpaceOnUse">
<stop stop-color="#808080" stop-opacity="0.25"/>
<stop offset="0.54" stop-color="#808080" stop-opacity="0.12"/>
<stop offset="1" stop-color="#808080" stop-opacity="0.1"/>
</linearGradient>
<linearGradient id="paint17_linear" x1="11846.7" y1="4853.48" x2="11842.1" y2="4395.95" gradientUnits="userSpaceOnUse">
<stop stop-color="#808080" stop-opacity="0.25"/>
<stop offset="0.54" stop-color="#808080" stop-opacity="0.12"/>
<stop offset="1" stop-color="#808080" stop-opacity="0.1"/>
</linearGradient>
<linearGradient id="paint18_linear" x1="12754.1" y1="5561.79" x2="12749.5" y2="5104.25" gradientUnits="userSpaceOnUse">
<stop stop-color="#808080" stop-opacity="0.25"/>
<stop offset="0.54" stop-color="#808080" stop-opacity="0.12"/>
<stop offset="1" stop-color="#808080" stop-opacity="0.1"/>
</linearGradient>
<linearGradient id="paint19_linear" x1="3824.23" y1="2057.21" x2="3818.57" y2="1970.94" gradientUnits="userSpaceOnUse">
<stop stop-color="#808080" stop-opacity="0.25"/>
<stop offset="0.54" stop-color="#808080" stop-opacity="0.12"/>
<stop offset="1" stop-color="#808080" stop-opacity="0.1"/>
</linearGradient>
<linearGradient id="paint20_linear" x1="4849.85" y1="1980.79" x2="4844.19" y2="1894.52" gradientUnits="userSpaceOnUse">
<stop stop-color="#808080" stop-opacity="0.25"/>
<stop offset="0.54" stop-color="#808080" stop-opacity="0.12"/>
<stop offset="1" stop-color="#808080" stop-opacity="0.1"/>
</linearGradient>
<clipPath id="clip0">
<rect width="148" height="102.101" fill="white" transform="translate(26 45)"/>
</clipPath>
</defs>
</svg>
